<svg width="203" height="203" viewBox="0 0 203 203" fill="none" xmlns="http://www.w3.org/2000/svg">
<g clip-path="url(#clip0)">
<ellipse cx="32.3216" cy="54.9831" rx="21.094" ry="26.4503" transform="rotate(29.2184 32.3216 54.9831)" fill="#708D81"/>
<ellipse cx="96.0257" cy="102.674" rx="60.5" ry="43.851" transform="rotate(-6.67371 96.0257 102.674)" fill="#E7592C"/>
<path d="M169.341 97C169.341 107.209 163.604 116.953 153.321 124.356C143.047 131.754 128.576 136.5 112.341 136.5C96.1055 136.5 81.6344 131.754 71.3601 124.356C61.0776 116.953 55.3406 107.209 55.3406 97C55.3406 86.7913 61.0776 77.047 71.3601 69.6436C81.6344 62.2461 96.1055 57.5 112.341 57.5C128.576 57.5 143.047 62.2461 153.321 69.6436C163.604 77.047 169.341 86.7913 169.341 97Z" stroke="#353238" stroke-width="11"/>
<path d="M173.418 152.756C173.299 155.792 175.664 158.348 178.699 158.467C181.734 158.585 184.291 156.221 184.409 153.186L173.418 152.756ZM108.885 190.5C108.885 193.538 111.348 196 114.385 196C117.423 196 119.885 193.538 119.885 190.5H108.885ZM38.9156 153.116C38.9958 156.153 41.5224 158.549 44.5589 158.469C47.5954 158.389 49.992 155.862 49.9118 152.826L38.9156 153.116ZM38.9683 114C39.4862 117.649 41.8593 122.17 45.1171 126.552C48.5236 131.134 53.3638 136.19 59.6131 140.899C72.1493 150.346 90.4628 158.471 114.385 158.471V147.471C93.081 147.471 77.0535 140.268 66.233 132.114C60.804 128.023 56.7118 123.711 53.9445 119.989C51.0284 116.067 49.986 113.348 49.8591 112.454L38.9683 114ZM114.385 158.471C159.761 158.471 181.792 130.781 184.35 114.059L173.477 112.395C171.865 122.931 155.197 147.471 114.385 147.471V158.471ZM184.35 114.059C184.409 113.678 184.458 113.389 184.499 113.177C184.542 112.951 184.563 112.876 184.557 112.898C184.554 112.911 184.528 113.005 184.474 113.147C184.434 113.252 184.299 113.602 184.029 114.025C183.893 114.238 183.041 115.611 181.182 116.225C180.071 116.592 178.828 116.603 177.654 116.189C176.575 115.808 175.863 115.179 175.463 114.744C174.741 113.959 174.459 113.174 174.398 113.006C174.294 112.722 174.246 112.507 174.231 112.437C174.2 112.29 174.202 112.248 174.217 112.392C174.243 112.655 174.273 113.132 174.296 113.862C174.389 116.778 174.328 122.027 174.197 127.865C174.067 133.655 173.873 139.876 173.71 144.658C173.629 147.047 173.556 149.073 173.503 150.501C173.477 151.215 173.455 151.78 173.441 152.166C173.433 152.358 173.428 152.507 173.424 152.606C173.422 152.656 173.42 152.694 173.419 152.719C173.419 152.732 173.418 152.741 173.418 152.747C173.418 152.75 173.418 152.753 173.418 152.754C173.418 152.755 173.418 152.755 173.418 152.756C173.418 152.756 173.418 152.756 178.914 152.971C184.409 153.186 184.409 153.186 184.41 153.185C184.41 153.185 184.41 153.184 184.41 153.183C184.41 153.181 184.41 153.179 184.41 153.175C184.41 153.169 184.411 153.159 184.411 153.146C184.412 153.12 184.414 153.081 184.415 153.031C184.419 152.929 184.425 152.779 184.433 152.584C184.447 152.195 184.469 151.626 184.495 150.907C184.549 149.47 184.622 147.433 184.704 145.031C184.867 140.231 185.063 133.962 185.194 128.112C185.324 122.31 185.394 116.772 185.291 113.513C185.265 112.7 185.226 111.922 185.16 111.276C185.128 110.966 185.078 110.557 184.988 110.136C184.944 109.93 184.865 109.603 184.729 109.23C184.635 108.973 184.319 108.124 183.562 107.3C183.144 106.846 182.414 106.204 181.317 105.816C180.123 105.395 178.862 105.407 177.731 105.78C175.833 106.407 174.94 107.819 174.762 108.098C174.236 108.92 174.015 109.749 173.958 109.957C173.765 110.652 173.611 111.518 173.477 112.395L184.35 114.059ZM108.885 152.971C108.885 153.021 108.885 153.071 108.885 153.122C108.885 153.172 108.885 153.222 108.885 153.272C108.885 153.322 108.885 153.372 108.885 153.422C108.885 153.471 108.885 153.521 108.885 153.571C108.885 153.621 108.885 153.671 108.885 153.72C108.885 153.77 108.885 153.82 108.885 153.869C108.885 153.919 108.885 153.968 108.885 154.018C108.885 154.067 108.885 154.117 108.885 154.166C108.885 154.215 108.885 154.265 108.885 154.314C108.885 154.363 108.885 154.412 108.885 154.462C108.885 154.511 108.885 154.56 108.885 154.609C108.885 154.658 108.885 154.707 108.885 154.756C108.885 154.805 108.885 154.854 108.885 154.903C108.885 154.951 108.885 155 108.885 155.049C108.885 155.098 108.885 155.146 108.885 155.195C108.885 155.244 108.885 155.292 108.885 155.341C108.885 155.389 108.885 155.438 108.885 155.486C108.885 155.534 108.885 155.583 108.885 155.631C108.885 155.679 108.885 155.728 108.885 155.776C108.885 155.824 108.885 155.872 108.885 155.92C108.885 155.968 108.885 156.017 108.885 156.064C108.885 156.112 108.885 156.16 108.885 156.208C108.885 156.256 108.885 156.304 108.885 156.352C108.885 156.4 108.885 156.447 108.885 156.495C108.885 156.543 108.885 156.59 108.885 156.638C108.885 156.685 108.885 156.733 108.885 156.78C108.885 156.828 108.885 156.875 108.885 156.923C108.885 156.97 108.885 157.017 108.885 157.065C108.885 157.112 108.885 157.159 108.885 157.206C108.885 157.253 108.885 157.301 108.885 157.348C108.885 157.395 108.885 157.442 108.885 157.489C108.885 157.535 108.885 157.582 108.885 157.629C108.885 157.676 108.885 157.723 108.885 157.77C108.885 157.816 108.885 157.863 108.885 157.91C108.885 157.956 108.885 158.003 108.885 158.049C108.885 158.096 108.885 158.142 108.885 158.189C108.885 158.235 108.885 158.282 108.885 158.328C108.885 158.374 108.885 158.42 108.885 158.467C108.885 158.513 108.885 158.559 108.885 158.605C108.885 158.651 108.885 158.697 108.885 158.743C108.885 158.789 108.885 158.835 108.885 158.881C108.885 158.927 108.885 158.973 108.885 159.019C108.885 159.064 108.885 159.11 108.885 159.156C108.885 159.202 108.885 159.247 108.885 159.293C108.885 159.338 108.885 159.384 108.885 159.429C108.885 159.475 108.885 159.52 108.885 159.566C108.885 159.611 108.885 159.656 108.885 159.702C108.885 159.747 108.885 159.792 108.885 159.837C108.885 159.882 108.885 159.927 108.885 159.973C108.885 160.018 108.885 160.063 108.885 160.108C108.885 160.152 108.885 160.197 108.885 160.242C108.885 160.287 108.885 160.332 108.885 160.377C108.885 160.421 108.885 160.466 108.885 160.511C108.885 160.555 108.885 160.6 108.885 160.644C108.885 160.689 108.885 160.733 108.885 160.778C108.885 160.822 108.885 160.867 108.885 160.911C108.885 160.955 108.885 161 108.885 161.044C108.885 161.088 108.885 161.132 108.885 161.176C108.885 161.22 108.885 161.265 108.885 161.309C108.885 161.353 108.885 161.397 108.885 161.44C108.885 161.484 108.885 161.528 108.885 161.572C108.885 161.616 108.885 161.66 108.885 161.703C108.885 161.747 108.885 161.791 108.885 161.834C108.885 161.878 108.885 161.921 108.885 161.965C108.885 162.008 108.885 162.052 108.885 162.095C108.885 162.139 108.885 162.182 108.885 162.225C108.885 162.269 108.885 162.312 108.885 162.355C108.885 162.398 108.885 162.441 108.885 162.484C108.885 162.527 108.885 162.57 108.885 162.613C108.885 162.656 108.885 162.699 108.885 162.742C108.885 162.785 108.885 162.828 108.885 162.871C108.885 162.913 108.885 162.956 108.885 162.999C108.885 163.041 108.885 163.084 108.885 163.127C108.885 163.169 108.885 163.212 108.885 163.254C108.885 163.297 108.885 163.339 108.885 163.381C108.885 163.424 108.885 163.466 108.885 163.508C108.885 163.55 108.885 163.593 108.885 163.635C108.885 163.677 108.885 163.719 108.885 163.761C108.885 163.803 108.885 163.845 108.885 163.887C108.885 163.929 108.885 163.971 108.885 164.013C108.885 164.055 108.885 164.096 108.885 164.138C108.885 164.18 108.885 164.221 108.885 164.263C108.885 164.305 108.885 164.346 108.885 164.388C108.885 164.429 108.885 164.471 108.885 164.512C108.885 164.554 108.885 164.595 108.885 164.636C108.885 164.678 108.885 164.719 108.885 164.76C108.885 164.801 108.885 164.843 108.885 164.884C108.885 164.925 108.885 164.966 108.885 165.007C108.885 165.048 108.885 165.089 108.885 165.13C108.885 165.171 108.885 165.211 108.885 165.252C108.885 165.293 108.885 165.334 108.885 165.375C108.885 165.415 108.885 165.456 108.885 165.496C108.885 165.537 108.885 165.578 108.885 165.618C108.885 165.659 108.885 165.699 108.885 165.739C108.885 165.78 108.885 165.82 108.885 165.86C108.885 165.901 108.885 165.941 108.885 165.981C108.885 166.021 108.885 166.061 108.885 166.101C108.885 166.142 108.885 166.182 108.885 166.222C108.885 166.262 108.885 166.301 108.885 166.341C108.885 166.381 108.885 166.421 108.885 166.461C108.885 166.501 108.885 166.54 108.885 166.58C108.885 166.62 108.885 166.659 108.885 166.699C108.885 166.738 108.885 166.778 108.885 166.817C108.885 166.857 108.885 166.896 108.885 166.936C108.885 166.975 108.885 167.014 108.885 167.054C108.885 167.093 108.885 167.132 108.885 167.171C108.885 167.21 108.885 167.249 108.885 167.288C108.885 167.327 108.885 167.366 108.885 167.405C108.885 167.444 108.885 167.483 108.885 167.522C108.885 167.561 108.885 167.6 108.885 167.639C108.885 167.677 108.885 167.716 108.885 167.755C108.885 167.793 108.885 167.832 108.885 167.87C108.885 167.909 108.885 167.947 108.885 167.986C108.885 168.024 108.885 168.063 108.885 168.101C108.885 168.139 108.885 168.178 108.885 168.216C108.885 168.254 108.885 168.292 108.885 168.33C108.885 168.368 108.885 168.407 108.885 168.445C108.885 168.483 108.885 168.521 108.885 168.559C108.885 168.596 108.885 168.634 108.885 168.672C108.885 168.71 108.885 168.748 108.885 168.785C108.885 168.823 108.885 168.861 108.885 168.898C108.885 168.936 108.885 168.974 108.885 169.011C108.885 169.049 108.885 169.086 108.885 169.124C108.885 169.161 108.885 169.198 108.885 169.236C108.885 169.273 108.885 169.31 108.885 169.347C108.885 169.385 108.885 169.422 108.885 169.459C108.885 169.496 108.885 169.533 108.885 169.57C108.885 169.607 108.885 169.644 108.885 169.681C108.885 169.718 108.885 169.755 108.885 169.791C108.885 169.828 108.885 169.865 108.885 169.902C108.885 169.938 108.885 169.975 108.885 170.012C108.885 170.048 108.885 170.085 108.885 170.121C108.885 170.158 108.885 170.194 108.885 170.231C108.885 170.267 108.885 170.303 108.885 170.34C108.885 170.376 108.885 170.412 108.885 170.448C108.885 170.485 108.885 170.521 108.885 170.557C108.885 170.593 108.885 170.629 108.885 170.665C108.885 170.701 108.885 170.737 108.885 170.773C108.885 170.809 108.885 170.844 108.885 170.88C108.885 170.916 108.885 170.952 108.885 170.987C108.885 171.023 108.885 171.059 108.885 171.094C108.885 171.13 108.885 171.165 108.885 171.201C108.885 171.236 108.885 171.272 108.885 171.307C108.885 171.342 108.885 171.378 108.885 171.413C108.885 171.448 108.885 171.484 108.885 171.519C108.885 171.554 108.885 171.589 108.885 171.624C108.885 171.659 108.885 171.694 108.885 171.729C108.885 171.764 108.885 171.799 108.885 171.834C108.885 171.869 108.885 171.904 108.885 171.938C108.885 171.973 108.885 172.008 108.885 172.043C108.885 172.077 108.885 172.112 108.885 172.146C108.885 172.181 108.885 172.215 108.885 172.25C108.885 172.284 108.885 172.319 108.885 172.353C108.885 172.387 108.885 172.422 108.885 172.456C108.885 172.49 108.885 172.525 108.885 172.559C108.885 172.593 108.885 172.627 108.885 172.661C108.885 172.695 108.885 172.729 108.885 172.763C108.885 172.797 108.885 172.831 108.885 172.865C108.885 172.899 108.885 172.932 108.885 172.966C108.885 173 108.885 173.034 108.885 173.067C108.885 173.101 108.885 173.135 108.885 173.168C108.885 173.202 108.885 173.235 108.885 173.269C108.885 173.302 108.885 173.335 108.885 173.369C108.885 173.402 108.885 173.435 108.885 173.469C108.885 173.502 108.885 173.535 108.885 173.568C108.885 173.601 108.885 173.635 108.885 173.668C108.885 173.701 108.885 173.734 108.885 173.767C108.885 173.8 108.885 173.832 108.885 173.865C108.885 173.898 108.885 173.931 108.885 173.964C108.885 173.996 108.885 174.029 108.885 174.062C108.885 174.094 108.885 174.127 108.885 174.16C108.885 174.192 108.885 174.225 108.885 174.257C108.885 174.289 108.885 174.322 108.885 174.354C108.885 174.387 108.885 174.419 108.885 174.451C108.885 174.483 108.885 174.515 108.885 174.548C108.885 174.58 108.885 174.612 108.885 174.644C108.885 174.676 108.885 174.708 108.885 174.74C108.885 174.772 108.885 174.804 108.885 174.836C108.885 174.867 108.885 174.899 108.885 174.931C108.885 174.963 108.885 174.994 108.885 175.026C108.885 175.058 108.885 175.089 108.885 175.121C108.885 175.152 108.885 175.184 108.885 175.215C108.885 175.247 108.885 175.278 108.885 175.309C108.885 175.341 108.885 175.372 108.885 175.403C108.885 175.434 108.885 175.466 108.885 175.497C108.885 175.528 108.885 175.559 108.885 175.59C108.885 175.621 108.885 175.652 108.885 175.683C108.885 175.714 108.885 175.745 108.885 175.776C108.885 175.806 108.885 175.837 108.885 175.868C108.885 175.899 108.885 175.929 108.885 175.96C108.885 175.991 108.885 176.021 108.885 176.052C108.885 176.082 108.885 176.113 108.885 176.143C108.885 176.174 108.885 176.204 108.885 176.234C108.885 176.265 108.885 176.295 108.885 176.325C108.885 176.356 108.885 176.386 108.885 176.416C108.885 176.446 108.885 176.476 108.885 176.506C108.885 176.536 108.885 176.566 108.885 176.596C108.885 176.626 108.885 176.656 108.885 176.686C108.885 176.716 108.885 176.745 108.885 176.775C108.885 176.805 108.885 176.835 108.885 176.864C108.885 176.894 108.885 176.923 108.885 176.953C108.885 176.982 108.885 177.012 108.885 177.041C108.885 177.071 108.885 177.1 108.885 177.13C108.885 177.159 108.885 177.188 108.885 177.217C108.885 177.247 108.885 177.276 108.885 177.305C108.885 177.334 108.885 177.363 108.885 177.392C108.885 177.421 108.885 177.45 108.885 177.479C108.885 177.508 108.885 177.537 108.885 177.566C108.885 177.595 108.885 177.623 108.885 177.652C108.885 177.681 108.885 177.71 108.885 177.738C108.885 177.767 108.885 177.796 108.885 177.824C108.885 177.853 108.885 177.881 108.885 177.91C108.885 177.938 108.885 177.966 108.885 177.995C108.885 178.023 108.885 178.051 108.885 178.08C108.885 178.108 108.885 178.136 108.885 178.164C108.885 178.192 108.885 178.22 108.885 178.248C108.885 178.276 108.885 178.304 108.885 178.332C108.885 178.36 108.885 178.388 108.885 178.416C108.885 178.444 108.885 178.472 108.885 178.5C108.885 178.527 108.885 178.555 108.885 178.583C108.885 178.61 108.885 178.638 108.885 178.665C108.885 178.693 108.885 178.72 108.885 178.748C108.885 178.775 108.885 178.803 108.885 178.83C108.885 178.857 108.885 178.885 108.885 178.912C108.885 178.939 108.885 178.966 108.885 178.994C108.885 179.021 108.885 179.048 108.885 179.075C108.885 179.102 108.885 179.129 108.885 179.156C108.885 179.183 108.885 179.21 108.885 179.237C108.885 179.263 108.885 179.29 108.885 179.317C108.885 179.344 108.885 179.37 108.885 179.397C108.885 179.424 108.885 179.45 108.885 179.477C108.885 179.504 108.885 179.53 108.885 179.556C108.885 179.583 108.885 179.609 108.885 179.636C108.885 179.662 108.885 179.688 108.885 179.715C108.885 179.741 108.885 179.767 108.885 179.793C108.885 179.819 108.885 179.846 108.885 179.872C108.885 179.898 108.885 179.924 108.885 179.95C108.885 179.976 108.885 180.002 108.885 180.027C108.885 180.053 108.885 180.079 108.885 180.105C108.885 180.131 108.885 180.156 108.885 180.182C108.885 180.208 108.885 180.233 108.885 180.259C108.885 180.284 108.885 180.31 108.885 180.335C108.885 180.361 108.885 180.386 108.885 180.412C108.885 180.437 108.885 180.462 108.885 180.488C108.885 180.513 108.885 180.538 108.885 180.563C108.885 180.589 108.885 180.614 108.885 180.639C108.885 180.664 108.885 180.689 108.885 180.714C108.885 180.739 108.885 180.764 108.885 180.789C108.885 180.814 108.885 180.838 108.885 180.863C108.885 180.888 108.885 180.913 108.885 180.937C108.885 180.962 108.885 180.987 108.885 181.011C108.885 181.036 108.885 181.06 108.885 181.085C108.885 181.109 108.885 181.134 108.885 181.158C108.885 181.183 108.885 181.207 108.885 181.231C108.885 181.255 108.885 181.28 108.885 181.304C108.885 181.328 108.885 181.352 108.885 181.376C108.885 181.4 108.885 181.425 108.885 181.448C108.885 181.472 108.885 181.496 108.885 181.52C108.885 181.544 108.885 181.568 108.885 181.592C108.885 181.616 108.885 181.639 108.885 181.663C108.885 181.687 108.885 181.711 108.885 181.734C108.885 181.758 108.885 181.781 108.885 181.805C108.885 181.828 108.885 181.852 108.885 181.875C108.885 181.899 108.885 181.922 108.885 181.945C108.885 181.969 108.885 181.992 108.885 182.015C108.885 182.038 108.885 182.061 108.885 182.085C108.885 182.108 108.885 182.131 108.885 182.154C108.885 182.177 108.885 182.2 108.885 182.223C108.885 182.246 108.885 182.268 108.885 182.291C108.885 182.314 108.885 182.337 108.885 182.36C108.885 182.382 108.885 182.405 108.885 182.428C108.885 182.45 108.885 182.473 108.885 182.495C108.885 182.518 108.885 182.54 108.885 182.563C108.885 182.585 108.885 182.608 108.885 182.63C108.885 182.652 108.885 182.675 108.885 182.697C108.885 182.719 108.885 182.741 108.885 182.763C108.885 182.786 108.885 182.808 108.885 182.83C108.885 182.852 108.885 182.874 108.885 182.896C108.885 182.918 108.885 182.94 108.885 182.961C108.885 182.983 108.885 183.005 108.885 183.027C108.885 183.049 108.885 183.07 108.885 183.092C108.885 183.114 108.885 183.135 108.885 183.157C108.885 183.178 108.885 183.2 108.885 183.221C108.885 183.243 108.885 183.264 108.885 183.285C108.885 183.307 108.885 183.328 108.885 183.349C108.885 183.371 108.885 183.392 108.885 183.413C108.885 183.434 108.885 183.455 108.885 183.476C108.885 183.497 108.885 183.518 108.885 183.539C108.885 183.56 108.885 183.581 108.885 183.602C108.885 183.623 108.885 183.644 108.885 183.665C108.885 183.685 108.885 183.706 108.885 183.727C108.885 183.748 108.885 183.768 108.885 183.789C108.885 183.809 108.885 183.83 108.885 183.85C108.885 183.871 108.885 183.891 108.885 183.912C108.885 183.932 108.885 183.952 108.885 183.973C108.885 183.993 108.885 184.013 108.885 184.034C108.885 184.054 108.885 184.074 108.885 184.094C108.885 184.114 108.885 184.134 108.885 184.154C108.885 184.174 108.885 184.194 108.885 184.214C108.885 184.234 108.885 184.254 108.885 184.274C108.885 184.293 108.885 184.313 108.885 184.333C108.885 184.353 108.885 184.372 108.885 184.392C108.885 184.411 108.885 184.431 108.885 184.451C108.885 184.47 108.885 184.49 108.885 184.509C108.885 184.528 108.885 184.548 108.885 184.567C108.885 184.586 108.885 184.606 108.885 184.625C108.885 184.644 108.885 184.663 108.885 184.682C108.885 184.702 108.885 184.721 108.885 184.74C108.885 184.759 108.885 184.778 108.885 184.797C108.885 184.816 108.885 184.835 108.885 184.853C108.885 184.872 108.885 184.891 108.885 184.91C108.885 184.929 108.885 184.947 108.885 184.966C108.885 184.985 108.885 185.003 108.885 185.022C108.885 185.04 108.885 185.059 108.885 185.077C108.885 185.096 108.885 185.114 108.885 185.132C108.885 185.151 108.885 185.169 108.885 185.187C108.885 185.206 108.885 185.224 108.885 185.242C108.885 185.26 108.885 185.278 108.885 185.296C108.885 185.315 108.885 185.333 108.885 185.351C108.885 185.369 108.885 185.386 108.885 185.404C108.885 185.422 108.885 185.44 108.885 185.458C108.885 185.476 108.885 185.493 108.885 185.511C108.885 185.529 108.885 185.546 108.885 185.564C108.885 185.582 108.885 185.599 108.885 185.617C108.885 185.634 108.885 185.652 108.885 185.669C108.885 185.686 108.885 185.704 108.885 185.721C108.885 185.738 108.885 185.756 108.885 185.773C108.885 185.79 108.885 185.807 108.885 185.824C108.885 185.841 108.885 185.858 108.885 185.875C108.885 185.893 108.885 185.909 108.885 185.926C108.885 185.943 108.885 185.96 108.885 185.977C108.885 185.994 108.885 186.011 108.885 186.027C108.885 186.044 108.885 186.061 108.885 186.077C108.885 186.094 108.885 186.111 108.885 186.127C108.885 186.144 108.885 186.16 108.885 186.177C108.885 186.193 108.885 186.209 108.885 186.226C108.885 186.242 108.885 186.258 108.885 186.275C108.885 186.291 108.885 186.307 108.885 186.323C108.885 186.34 108.885 186.356 108.885 186.372C108.885 186.388 108.885 186.404 108.885 186.42C108.885 186.436 108.885 186.452 108.885 186.468C108.885 186.483 108.885 186.499 108.885 186.515C108.885 186.531 108.885 186.546 108.885 186.562C108.885 186.578 108.885 186.593 108.885 186.609C108.885 186.625 108.885 186.64 108.885 186.656C108.885 186.671 108.885 186.687 108.885 186.702C108.885 186.717 108.885 186.733 108.885 186.748C108.885 186.763 108.885 186.779 108.885 186.794C108.885 186.809 108.885 186.824 108.885 186.839C108.885 186.854 108.885 186.869 108.885 186.884C108.885 186.899 108.885 186.914 108.885 186.929C108.885 186.944 108.885 186.959 108.885 186.974C108.885 186.989 108.885 187.004 108.885 187.018C108.885 187.033 108.885 187.048 108.885 187.062C108.885 187.077 108.885 187.092 108.885 187.106C108.885 187.121 108.885 187.135 108.885 187.15C108.885 187.164 108.885 187.178 108.885 187.193C108.885 187.207 108.885 187.221 108.885 187.236C108.885 187.25 108.885 187.264 108.885 187.278C108.885 187.292 108.885 187.307 108.885 187.321C108.885 187.335 108.885 187.349 108.885 187.363C108.885 187.377 108.885 187.391 108.885 187.404C108.885 187.418 108.885 187.432 108.885 187.446C108.885 187.46 108.885 187.473 108.885 187.487C108.885 187.501 108.885 187.514 108.885 187.528C108.885 187.542 108.885 187.555 108.885 187.569C108.885 187.582 108.885 187.596 108.885 187.609C108.885 187.622 108.885 187.636 108.885 187.649C108.885 187.662 108.885 187.676 108.885 187.689C108.885 187.702 108.885 187.715 108.885 187.728C108.885 187.741 108.885 187.754 108.885 187.767C108.885 187.781 108.885 187.793 108.885 187.806C108.885 187.819 108.885 187.832 108.885 187.845C108.885 187.858 108.885 187.871 108.885 187.883C108.885 187.896 108.885 187.909 108.885 187.921C108.885 187.934 108.885 187.947 108.885 187.959C108.885 187.972 108.885 187.984 108.885 187.997C108.885 188.009 108.885 188.022 108.885 188.034C108.885 188.046 108.885 188.059 108.885 188.071C108.885 188.083 108.885 188.095 108.885 188.108C108.885 188.12 108.885 188.132 108.885 188.144C108.885 188.156 108.885 188.168 108.885 188.18C108.885 188.192 108.885 188.204 108.885 188.216C108.885 188.228 108.885 188.24 108.885 188.251C108.885 188.263 108.885 188.275 108.885 188.287C108.885 188.298 108.885 188.31 108.885 188.322C108.885 188.333 108.885 188.345 108.885 188.356C108.885 188.368 108.885 188.379 108.885 188.391C108.885 188.402 108.885 188.413 108.885 188.425C108.885 188.436 108.885 188.447 108.885 188.459C108.885 188.47 108.885 188.481 108.885 188.492C108.885 188.503 108.885 188.514 108.885 188.525C108.885 188.537 108.885 188.548 108.885 188.558C108.885 188.569 108.885 188.58 108.885 188.591C108.885 188.602 108.885 188.613 108.885 188.624C108.885 188.634 108.885 188.645 108.885 188.656C108.885 188.666 108.885 188.677 108.885 188.688C108.885 188.698 108.885 188.709 108.885 188.719C108.885 188.73 108.885 188.74 108.885 188.75C108.885 188.761 108.885 188.771 108.885 188.782C108.885 188.792 108.885 188.802 108.885 188.812C108.885 188.822 108.885 188.833 108.885 188.843C108.885 188.853 108.885 188.863 108.885 188.873C108.885 188.883 108.885 188.893 108.885 188.903C108.885 188.913 108.885 188.923 108.885 188.932C108.885 188.942 108.885 188.952 108.885 188.962C108.885 188.971 108.885 188.981 108.885 188.991C108.885 189 108.885 189.01 108.885 189.02C108.885 189.029 108.885 189.039 108.885 189.048C108.885 189.058 108.885 189.067 108.885 189.076C108.885 189.086 108.885 189.095 108.885 189.104C108.885 189.113 108.885 189.123 108.885 189.132C108.885 189.141 108.885 189.15 108.885 189.159C108.885 189.168 108.885 189.177 108.885 189.186C108.885 189.195 108.885 189.204 108.885 189.213C108.885 189.222 108.885 189.231 108.885 189.24C108.885 189.249 108.885 189.257 108.885 189.266C108.885 189.275 108.885 189.283 108.885 189.292C108.885 189.301 108.885 189.309 108.885 189.318C108.885 189.326 108.885 189.335 108.885 189.343C108.885 189.352 108.885 189.36 108.885 189.368C108.885 189.377 108.885 189.385 108.885 189.393C108.885 189.401 108.885 189.41 108.885 189.418C108.885 189.426 108.885 189.434 108.885 189.442C108.885 189.45 108.885 189.458 108.885 189.466C108.885 189.474 108.885 189.482 108.885 189.49C108.885 189.498 108.885 189.505 108.885 189.513C108.885 189.521 108.885 189.529 108.885 189.536C108.885 189.544 108.885 189.552 108.885 189.559C108.885 189.567 108.885 189.574 108.885 189.582C108.885 189.589 108.885 189.597 108.885 189.604C108.885 189.612 108.885 189.619 108.885 189.626C108.885 189.634 108.885 189.641 108.885 189.648C108.885 189.655 108.885 189.663 108.885 189.67C108.885 189.677 108.885 189.684 108.885 189.691C108.885 189.698 108.885 189.705 108.885 189.712C108.885 189.719 108.885 189.726 108.885 189.733C108.885 189.739 108.885 189.746 108.885 189.753C108.885 189.76 108.885 189.766 108.885 189.773C108.885 189.78 108.885 189.786 108.885 189.793C108.885 189.8 108.885 189.806 108.885 189.813C108.885 189.819 108.885 189.826 108.885 189.832C108.885 189.838 108.885 189.845 108.885 189.851C108.885 189.857 108.885 189.863 108.885 189.87C108.885 189.876 108.885 189.882 108.885 189.888C108.885 189.894 108.885 189.9 108.885 189.906C108.885 189.912 108.885 189.918 108.885 189.924C108.885 189.93 108.885 189.936 108.885 189.942C108.885 189.948 108.885 189.954 108.885 189.959C108.885 189.965 108.885 189.971 108.885 189.976C108.885 189.982 108.885 189.988 108.885 189.993C108.885 189.999 108.885 190.004 108.885 190.01C108.885 190.015 108.885 190.021 108.885 190.026C108.885 190.031 108.885 190.037 108.885 190.042C108.885 190.047 108.885 190.052 108.885 190.058C108.885 190.063 108.885 190.068 108.885 190.073C108.885 190.078 108.885 190.083 108.885 190.088C108.885 190.093 108.885 190.098 108.885 190.103C108.885 190.108 108.885 190.113 108.885 190.118C108.885 190.123 108.885 190.127 108.885 190.132C108.885 190.137 108.885 190.141 108.885 190.146C108.885 190.151 108.885 190.155 108.885 190.16C108.885 190.164 108.885 190.169 108.885 190.173C108.885 190.178 108.885 190.182 108.885 190.187C108.885 190.191 108.885 190.195 108.885 190.2C108.885 190.204 108.885 190.208 108.885 190.212C108.885 190.216 108.885 190.221 108.885 190.225C108.885 190.229 108.885 190.233 108.885 190.237C108.885 190.241 108.885 190.245 108.885 190.249C108.885 190.253 108.885 190.256 108.885 190.26C108.885 190.264 108.885 190.268 108.885 190.272C108.885 190.275 108.885 190.279 108.885 190.283C108.885 190.286 108.885 190.29 108.885 190.293C108.885 190.297 108.885 190.3 108.885 190.304C108.885 190.307 108.885 190.311 108.885 190.314C108.885 190.317 108.885 190.321 108.885 190.324C108.885 190.327 108.885 190.33 108.885 190.334C108.885 190.337 108.885 190.34 108.885 190.343C108.885 190.346 108.885 190.349 108.885 190.352C108.885 190.355 108.885 190.358 108.885 190.361C108.885 190.364 108.885 190.367 108.885 190.37C108.885 190.372 108.885 190.375 108.885 190.378C108.885 190.381 108.885 190.383 108.885 190.386C108.885 190.388 108.885 190.391 108.885 190.394C108.885 190.396 108.885 190.399 108.885 190.401C108.885 190.404 108.885 190.406 108.885 190.408C108.885 190.411 108.885 190.413 108.885 190.415C108.885 190.417 108.885 190.42 108.885 190.422C108.885 190.424 108.885 190.426 108.885 190.428C108.885 190.43 108.885 190.432 108.885 190.434C108.885 190.436 108.885 190.438 108.885 190.44C108.885 190.442 108.885 190.444 108.885 190.446C108.885 190.448 108.885 190.449 108.885 190.451C108.885 190.453 108.885 190.454 108.885 190.456C108.885 190.458 108.885 190.459 108.885 190.461C108.885 190.462 108.885 190.464 108.885 190.465C108.885 190.467 108.885 190.468 108.885 190.47C108.885 190.471 108.885 190.472 108.885 190.473C108.885 190.475 108.885 190.476 108.885 190.477C108.885 190.478 108.885 190.479 108.885 190.48C108.885 190.482 108.885 190.483 108.885 190.484C108.885 190.485 108.885 190.486 108.885 190.486C108.885 190.487 108.885 190.488 108.885 190.489C108.885 190.49 108.885 190.491 108.885 190.491C108.885 190.492 108.885 190.493 108.885 190.493C108.885 190.494 108.885 190.495 108.885 190.495C108.885 190.496 108.885 190.496 108.885 190.497C108.885 190.497 108.885 190.497 108.885 190.498C108.885 190.498 108.885 190.499 108.885 190.499C108.885 190.499 108.885 190.499 108.885 190.499C108.885 190.5 108.885 190.5 108.885 190.5C108.885 190.5 108.885 190.5 114.385 190.5C119.885 190.5 119.885 190.5 119.885 190.5C119.885 190.5 119.885 190.5 119.885 190.499C119.885 190.499 119.885 190.499 119.885 190.499C119.885 190.499 119.885 190.498 119.885 190.498C119.885 190.497 119.885 190.497 119.885 190.497C119.885 190.496 119.885 190.496 119.885 190.495C119.885 190.495 119.885 190.494 119.885 190.493C119.885 190.493 119.885 190.492 119.885 190.491C119.885 190.491 119.885 190.49 119.885 190.489C119.885 190.488 119.885 190.487 119.885 190.486C119.885 190.486 119.885 190.485 119.885 190.484C119.885 190.483 119.885 190.482 119.885 190.48C119.885 190.479 119.885 190.478 119.885 190.477C119.885 190.476 119.885 190.475 119.885 190.473C119.885 190.472 119.885 190.471 119.885 190.47C119.885 190.468 119.885 190.467 119.885 190.465C119.885 190.464 119.885 190.462 119.885 190.461C119.885 190.459 119.885 190.458 119.885 190.456C119.885 190.454 119.885 190.453 119.885 190.451C119.885 190.449 119.885 190.448 119.885 190.446C119.885 190.444 119.885 190.442 119.885 190.44C119.885 190.438 119.885 190.436 119.885 190.434C119.885 190.432 119.885 190.43 119.885 190.428C119.885 190.426 119.885 190.424 119.885 190.422C119.885 190.42 119.885 190.417 119.885 190.415C119.885 190.413 119.885 190.411 119.885 190.408C119.885 190.406 119.885 190.404 119.885 190.401C119.885 190.399 119.885 190.396 119.885 190.394C119.885 190.391 119.885 190.388 119.885 190.386C119.885 190.383 119.885 190.381 119.885 190.378C119.885 190.375 119.885 190.372 119.885 190.37C119.885 190.367 119.885 190.364 119.885 190.361C119.885 190.358 119.885 190.355 119.885 190.352C119.885 190.349 119.885 190.346 119.885 190.343C119.885 190.34 119.885 190.337 119.885 190.334C119.885 190.33 119.885 190.327 119.885 190.324C119.885 190.321 119.885 190.317 119.885 190.314C119.885 190.311 119.885 190.307 119.885 190.304C119.885 190.3 119.885 190.297 119.885 190.293C119.885 190.29 119.885 190.286 119.885 190.283C119.885 190.279 119.885 190.275 119.885 190.272C119.885 190.268 119.885 190.264 119.885 190.26C119.885 190.256 119.885 190.253 119.885 190.249C119.885 190.245 119.885 190.241 119.885 190.237C119.885 190.233 119.885 190.229 119.885 190.225C119.885 190.221 119.885 190.216 119.885 190.212C119.885 190.208 119.885 190.204 119.885 190.2C119.885 190.195 119.885 190.191 119.885 190.187C119.885 190.182 119.885 190.178 119.885 190.173C119.885 190.169 119.885 190.164 119.885 190.16C119.885 190.155 119.885 190.151 119.885 190.146C119.885 190.141 119.885 190.137 119.885 190.132C119.885 190.127 119.885 190.123 119.885 190.118C119.885 190.113 119.885 190.108 119.885 190.103C119.885 190.098 119.885 190.093 119.885 190.088C119.885 190.083 119.885 190.078 119.885 190.073C119.885 190.068 119.885 190.063 119.885 190.058C119.885 190.052 119.885 190.047 119.885 190.042C119.885 190.037 119.885 190.031 119.885 190.026C119.885 190.021 119.885 190.015 119.885 190.01C119.885 190.004 119.885 189.999 119.885 189.993C119.885 189.988 119.885 189.982 119.885 189.976C119.885 189.971 119.885 189.965 119.885 189.959C119.885 189.954 119.885 189.948 119.885 189.942C119.885 189.936 119.885 189.93 119.885 189.924C119.885 189.918 119.885 189.912 119.885 189.906C119.885 189.9 119.885 189.894 119.885 189.888C119.885 189.882 119.885 189.876 119.885 189.87C119.885 189.863 119.885 189.857 119.885 189.851C119.885 189.845 119.885 189.838 119.885 189.832C119.885 189.826 119.885 189.819 119.885 189.813C119.885 189.806 119.885 189.8 119.885 189.793C119.885 189.786 119.885 189.78 119.885 189.773C119.885 189.766 119.885 189.76 119.885 189.753C119.885 189.746 119.885 189.739 119.885 189.733C119.885 189.726 119.885 189.719 119.885 189.712C119.885 189.705 119.885 189.698 119.885 189.691C119.885 189.684 119.885 189.677 119.885 189.67C119.885 189.663 119.885 189.655 119.885 189.648C119.885 189.641 119.885 189.634 119.885 189.626C119.885 189.619 119.885 189.612 119.885 189.604C119.885 189.597 119.885 189.589 119.885 189.582C119.885 189.574 119.885 189.567 119.885 189.559C119.885 189.552 119.885 189.544 119.885 189.536C119.885 189.529 119.885 189.521 119.885 189.513C119.885 189.505 119.885 189.498 119.885 189.49C119.885 189.482 119.885 189.474 119.885 189.466C119.885 189.458 119.885 189.45 119.885 189.442C119.885 189.434 119.885 189.426 119.885 189.418C119.885 189.41 119.885 189.401 119.885 189.393C119.885 189.385 119.885 189.377 119.885 189.368C119.885 189.36 119.885 189.352 119.885 189.343C119.885 189.335 119.885 189.326 119.885 189.318C119.885 189.309 119.885 189.301 119.885 189.292C119.885 189.283 119.885 189.275 119.885 189.266C119.885 189.257 119.885 189.249 119.885 189.24C119.885 189.231 119.885 189.222 119.885 189.213C119.885 189.204 119.885 189.195 119.885 189.186C119.885 189.177 119.885 189.168 119.885 189.159C119.885 189.15 119.885 189.141 119.885 189.132C119.885 189.123 119.885 189.113 119.885 189.104C119.885 189.095 119.885 189.086 119.885 189.076C119.885 189.067 119.885 189.058 119.885 189.048C119.885 189.039 119.885 189.029 119.885 189.02C119.885 189.01 119.885 189 119.885 188.991C119.885 188.981 119.885 188.971 119.885 188.962C119.885 188.952 119.885 188.942 119.885 188.932C119.885 188.923 119.885 188.913 119.885 188.903C119.885 188.893 119.885 188.883 119.885 188.873C119.885 188.863 119.885 188.853 119.885 188.843C119.885 188.833 119.885 188.822 119.885 188.812C119.885 188.802 119.885 188.792 119.885 188.782C119.885 188.771 119.885 188.761 119.885 188.75C119.885 188.74 119.885 188.73 119.885 188.719C119.885 188.709 119.885 188.698 119.885 188.688C119.885 188.677 119.885 188.666 119.885 188.656C119.885 188.645 119.885 188.634 119.885 188.624C119.885 188.613 119.885 188.602 119.885 188.591C119.885 188.58 119.885 188.569 119.885 188.558C119.885 188.548 119.885 188.537 119.885 188.525C119.885 188.514 119.885 188.503 119.885 188.492C119.885 188.481 119.885 188.47 119.885 188.459C119.885 188.447 119.885 188.436 119.885 188.425C119.885 188.413 119.885 188.402 119.885 188.391C119.885 188.379 119.885 188.368 119.885 188.356C119.885 188.345 119.885 188.333 119.885 188.322C119.885 188.31 119.885 188.298 119.885 188.287C119.885 188.275 119.885 188.263 119.885 188.251C119.885 188.24 119.885 188.228 119.885 188.216C119.885 188.204 119.885 188.192 119.885 188.18C119.885 188.168 119.885 188.156 119.885 188.144C119.885 188.132 119.885 188.12 119.885 188.108C119.885 188.095 119.885 188.083 119.885 188.071C119.885 188.059 119.885 188.046 119.885 188.034C119.885 188.022 119.885 188.009 119.885 187.997C119.885 187.984 119.885 187.972 119.885 187.959C119.885 187.947 119.885 187.934 119.885 187.921C119.885 187.909 119.885 187.896 119.885 187.883C119.885 187.871 119.885 187.858 119.885 187.845C119.885 187.832 119.885 187.819 119.885 187.806C119.885 187.793 119.885 187.781 119.885 187.767C119.885 187.754 119.885 187.741 119.885 187.728C119.885 187.715 119.885 187.702 119.885 187.689C119.885 187.676 119.885 187.662 119.885 187.649C119.885 187.636 119.885 187.622 119.885 187.609C119.885 187.596 119.885 187.582 119.885 187.569C119.885 187.555 119.885 187.542 119.885 187.528C119.885 187.514 119.885 187.501 119.885 187.487C119.885 187.473 119.885 187.46 119.885 187.446C119.885 187.432 119.885 187.418 119.885 187.404C119.885 187.391 119.885 187.377 119.885 187.363C119.885 187.349 119.885 187.335 119.885 187.321C119.885 187.307 119.885 187.292 119.885 187.278C119.885 187.264 119.885 187.25 119.885 187.236C119.885 187.221 119.885 187.207 119.885 187.193C119.885 187.178 119.885 187.164 119.885 187.15C119.885 187.135 119.885 187.121 119.885 187.106C119.885 187.092 119.885 187.077 119.885 187.062C119.885 187.048 119.885 187.033 119.885 187.018C119.885 187.004 119.885 186.989 119.885 186.974C119.885 186.959 119.885 186.944 119.885 186.929C119.885 186.914 119.885 186.899 119.885 186.884C119.885 186.869 119.885 186.854 119.885 186.839C119.885 186.824 119.885 186.809 119.885 186.794C119.885 186.779 119.885 186.763 119.885 186.748C119.885 186.733 119.885 186.717 119.885 186.702C119.885 186.687 119.885 186.671 119.885 186.656C119.885 186.64 119.885 186.625 119.885 186.609C119.885 186.593 119.885 186.578 119.885 186.562C119.885 186.546 119.885 186.531 119.885 186.515C119.885 186.499 119.885 186.483 119.885 186.468C119.885 186.452 119.885 186.436 119.885 186.42C119.885 186.404 119.885 186.388 119.885 186.372C119.885 186.356 119.885 186.34 119.885 186.323C119.885 186.307 119.885 186.291 119.885 186.275C119.885 186.258 119.885 186.242 119.885 186.226C119.885 186.209 119.885 186.193 119.885 186.177C119.885 186.16 119.885 186.144 119.885 186.127C119.885 186.111 119.885 186.094 119.885 186.077C119.885 186.061 119.885 186.044 119.885 186.027C119.885 186.011 119.885 185.994 119.885 185.977C119.885 185.96 119.885 185.943 119.885 185.926C119.885 185.909 119.885 185.893 119.885 185.875C119.885 185.858 119.885 185.841 119.885 185.824C119.885 185.807 119.885 185.79 119.885 185.773C119.885 185.756 119.885 185.738 119.885 185.721C119.885 185.704 119.885 185.686 119.885 185.669C119.885 185.652 119.885 185.634 119.885 185.617C119.885 185.599 119.885 185.582 119.885 185.564C119.885 185.546 119.885 185.529 119.885 185.511C119.885 185.493 119.885 185.476 119.885 185.458C119.885 185.44 119.885 185.422 119.885 185.404C119.885 185.386 119.885 185.369 119.885 185.351C119.885 185.333 119.885 185.315 119.885 185.296C119.885 185.278 119.885 185.26 119.885 185.242C119.885 185.224 119.885 185.206 119.885 185.187C119.885 185.169 119.885 185.151 119.885 185.132C119.885 185.114 119.885 185.096 119.885 185.077C119.885 185.059 119.885 185.04 119.885 185.022C119.885 185.003 119.885 184.985 119.885 184.966C119.885 184.947 119.885 184.929 119.885 184.91C119.885 184.891 119.885 184.872 119.885 184.853C119.885 184.835 119.885 184.816 119.885 184.797C119.885 184.778 119.885 184.759 119.885 184.74C119.885 184.721 119.885 184.702 119.885 184.682C119.885 184.663 119.885 184.644 119.885 184.625C119.885 184.606 119.885 184.586 119.885 184.567C119.885 184.548 119.885 184.528 119.885 184.509C119.885 184.49 119.885 184.47 119.885 184.451C119.885 184.431 119.885 184.411 119.885 184.392C119.885 184.372 119.885 184.353 119.885 184.333C119.885 184.313 119.885 184.293 119.885 184.274C119.885 184.254 119.885 184.234 119.885 184.214C119.885 184.194 119.885 184.174 119.885 184.154C119.885 184.134 119.885 184.114 119.885 184.094C119.885 184.074 119.885 184.054 119.885 184.034C119.885 184.013 119.885 183.993 119.885 183.973C119.885 183.952 119.885 183.932 119.885 183.912C119.885 183.891 119.885 183.871 119.885 183.85C119.885 183.83 119.885 183.809 119.885 183.789C119.885 183.768 119.885 183.748 119.885 183.727C119.885 183.706 119.885 183.685 119.885 183.665C119.885 183.644 119.885 183.623 119.885 183.602C119.885 183.581 119.885 183.56 119.885 183.539C119.885 183.518 119.885 183.497 119.885 183.476C119.885 183.455 119.885 183.434 119.885 183.413C119.885 183.392 119.885 183.371 119.885 183.349C119.885 183.328 119.885 183.307 119.885 183.285C119.885 183.264 119.885 183.243 119.885 183.221C119.885 183.2 119.885 183.178 119.885 183.157C119.885 183.135 119.885 183.114 119.885 183.092C119.885 183.07 119.885 183.049 119.885 183.027C119.885 183.005 119.885 182.983 119.885 182.961C119.885 182.94 119.885 182.918 119.885 182.896C119.885 182.874 119.885 182.852 119.885 182.83C119.885 182.808 119.885 182.786 119.885 182.763C119.885 182.741 119.885 182.719 119.885 182.697C119.885 182.675 119.885 182.652 119.885 182.63C119.885 182.608 119.885 182.585 119.885 182.563C119.885 182.54 119.885 182.518 119.885 182.495C119.885 182.473 119.885 182.45 119.885 182.428C119.885 182.405 119.885 182.382 119.885 182.36C119.885 182.337 119.885 182.314 119.885 182.291C119.885 182.268 119.885 182.246 119.885 182.223C119.885 182.2 119.885 182.177 119.885 182.154C119.885 182.131 119.885 182.108 119.885 182.085C119.885 182.061 119.885 182.038 119.885 182.015C119.885 181.992 119.885 181.969 119.885 181.945C119.885 181.922 119.885 181.899 119.885 181.875C119.885 181.852 119.885 181.828 119.885 181.805C119.885 181.781 119.885 181.758 119.885 181.734C119.885 181.711 119.885 181.687 119.885 181.663C119.885 181.639 119.885 181.616 119.885 181.592C119.885 181.568 119.885 181.544 119.885 181.52C119.885 181.496 119.885 181.472 119.885 181.448C119.885 181.425 119.885 181.4 119.885 181.376C119.885 181.352 119.885 181.328 119.885 181.304C119.885 181.28 119.885 181.255 119.885 181.231C119.885 181.207 119.885 181.183 119.885 181.158C119.885 181.134 119.885 181.109 119.885 181.085C119.885 181.06 119.885 181.036 119.885 181.011C119.885 180.987 119.885 180.962 119.885 180.937C119.885 180.913 119.885 180.888 119.885 180.863C119.885 180.838 119.885 180.814 119.885 180.789C119.885 180.764 119.885 180.739 119.885 180.714C119.885 180.689 119.885 180.664 119.885 180.639C119.885 180.614 119.885 180.589 119.885 180.563C119.885 180.538 119.885 180.513 119.885 180.488C119.885 180.462 119.885 180.437 119.885 180.412C119.885 180.386 119.885 180.361 119.885 180.335C119.885 180.31 119.885 180.284 119.885 180.259C119.885 180.233 119.885 180.208 119.885 180.182C119.885 180.156 119.885 180.131 119.885 180.105C119.885 180.079 119.885 180.053 119.885 180.027C119.885 180.002 119.885 179.976 119.885 179.95C119.885 179.924 119.885 179.898 119.885 179.872C119.885 179.846 119.885 179.819 119.885 179.793C119.885 179.767 119.885 179.741 119.885 179.715C119.885 179.688 119.885 179.662 119.885 179.636C119.885 179.609 119.885 179.583 119.885 179.556C119.885 179.53 119.885 179.504 119.885 179.477C119.885 179.45 119.885 179.424 119.885 179.397C119.885 179.37 119.885 179.344 119.885 179.317C119.885 179.29 119.885 179.263 119.885 179.237C119.885 179.21 119.885 179.183 119.885 179.156C119.885 179.129 119.885 179.102 119.885 179.075C119.885 179.048 119.885 179.021 119.885 178.994C119.885 178.966 119.885 178.939 119.885 178.912C119.885 178.885 119.885 178.857 119.885 178.83C119.885 178.803 119.885 178.775 119.885 178.748C119.885 178.72 119.885 178.693 119.885 178.665C119.885 178.638 119.885 178.61 119.885 178.583C119.885 178.555 119.885 178.527 119.885 178.5C119.885 178.472 119.885 178.444 119.885 178.416C119.885 178.388 119.885 178.36 119.885 178.332C119.885 178.304 119.885 178.276 119.885 178.248C119.885 178.22 119.885 178.192 119.885 178.164C119.885 178.136 119.885 178.108 119.885 178.08C119.885 178.051 119.885 178.023 119.885 177.995C119.885 177.966 119.885 177.938 119.885 177.91C119.885 177.881 119.885 177.853 119.885 177.824C119.885 177.796 119.885 177.767 119.885 177.738C119.885 177.71 119.885 177.681 119.885 177.652C119.885 177.623 119.885 177.595 119.885 177.566C119.885 177.537 119.885 177.508 119.885 177.479C119.885 177.45 119.885 177.421 119.885 177.392C119.885 177.363 119.885 177.334 119.885 177.305C119.885 177.276 119.885 177.247 119.885 177.217C119.885 177.188 119.885 177.159 119.885 177.13C119.885 177.1 119.885 177.071 119.885 177.041C119.885 177.012 119.885 176.982 119.885 176.953C119.885 176.923 119.885 176.894 119.885 176.864C119.885 176.835 119.885 176.805 119.885 176.775C119.885 176.745 119.885 176.716 119.885 176.686C119.885 176.656 119.885 176.626 119.885 176.596C119.885 176.566 119.885 176.536 119.885 176.506C119.885 176.476 119.885 176.446 119.885 176.416C119.885 176.386 119.885 176.356 119.885 176.325C119.885 176.295 119.885 176.265 119.885 176.234C119.885 176.204 119.885 176.174 119.885 176.143C119.885 176.113 119.885 176.082 119.885 176.052C119.885 176.021 119.885 175.991 119.885 175.96C119.885 175.929 119.885 175.899 119.885 175.868C119.885 175.837 119.885 175.806 119.885 175.776C119.885 175.745 119.885 175.714 119.885 175.683C119.885 175.652 119.885 175.621 119.885 175.59C119.885 175.559 119.885 175.528 119.885 175.497C119.885 175.466 119.885 175.434 119.885 175.403C119.885 175.372 119.885 175.341 119.885 175.309C119.885 175.278 119.885 175.247 119.885 175.215C119.885 175.184 119.885 175.152 119.885 175.121C119.885 175.089 119.885 175.058 119.885 175.026C119.885 174.994 119.885 174.963 119.885 174.931C119.885 174.899 119.885 174.867 119.885 174.836C119.885 174.804 119.885 174.772 119.885 174.74C119.885 174.708 119.885 174.676 119.885 174.644C119.885 174.612 119.885 174.58 119.885 174.548C119.885 174.515 119.885 174.483 119.885 174.451C119.885 174.419 119.885 174.387 119.885 174.354C119.885 174.322 119.885 174.289 119.885 174.257C119.885 174.225 119.885 174.192 119.885 174.16C119.885 174.127 119.885 174.094 119.885 174.062C119.885 174.029 119.885 173.996 119.885 173.964C119.885 173.931 119.885 173.898 119.885 173.865C119.885 173.832 119.885 173.8 119.885 173.767C119.885 173.734 119.885 173.701 119.885 173.668C119.885 173.635 119.885 173.601 119.885 173.568C119.885 173.535 119.885 173.502 119.885 173.469C119.885 173.435 119.885 173.402 119.885 173.369C119.885 173.335 119.885 173.302 119.885 173.269C119.885 173.235 119.885 173.202 119.885 173.168C119.885 173.135 119.885 173.101 119.885 173.067C119.885 173.034 119.885 173 119.885 172.966C119.885 172.932 119.885 172.899 119.885 172.865C119.885 172.831 119.885 172.797 119.885 172.763C119.885 172.729 119.885 172.695 119.885 172.661C119.885 172.627 119.885 172.593 119.885 172.559C119.885 172.525 119.885 172.49 119.885 172.456C119.885 172.422 119.885 172.387 119.885 172.353C119.885 172.319 119.885 172.284 119.885 172.25C119.885 172.215 119.885 172.181 119.885 172.146C119.885 172.112 119.885 172.077 119.885 172.043C119.885 172.008 119.885 171.973 119.885 171.938C119.885 171.904 119.885 171.869 119.885 171.834C119.885 171.799 119.885 171.764 119.885 171.729C119.885 171.694 119.885 171.659 119.885 171.624C119.885 171.589 119.885 171.554 119.885 171.519C119.885 171.484 119.885 171.448 119.885 171.413C119.885 171.378 119.885 171.342 119.885 171.307C119.885 171.272 119.885 171.236 119.885 171.201C119.885 171.165 119.885 171.13 119.885 171.094C119.885 171.059 119.885 171.023 119.885 170.987C119.885 170.952 119.885 170.916 119.885 170.88C119.885 170.844 119.885 170.809 119.885 170.773C119.885 170.737 119.885 170.701 119.885 170.665C119.885 170.629 119.885 170.593 119.885 170.557C119.885 170.521 119.885 170.485 119.885 170.448C119.885 170.412 119.885 170.376 119.885 170.34C119.885 170.303 119.885 170.267 119.885 170.231C119.885 170.194 119.885 170.158 119.885 170.121C119.885 170.085 119.885 170.048 119.885 170.012C119.885 169.975 119.885 169.938 119.885 169.902C119.885 169.865 119.885 169.828 119.885 169.791C119.885 169.755 119.885 169.718 119.885 169.681C119.885 169.644 119.885 169.607 119.885 169.57C119.885 169.533 119.885 169.496 119.885 169.459C119.885 169.422 119.885 169.385 119.885 169.347C119.885 169.31 119.885 169.273 119.885 169.236C119.885 169.198 119.885 169.161 119.885 169.124C119.885 169.086 119.885 169.049 119.885 169.011C119.885 168.974 119.885 168.936 119.885 168.898C119.885 168.861 119.885 168.823 119.885 168.785C119.885 168.748 119.885 168.71 119.885 168.672C119.885 168.634 119.885 168.596 119.885 168.559C119.885 168.521 119.885 168.483 119.885 168.445C119.885 168.407 119.885 168.368 119.885 168.33C119.885 168.292 119.885 168.254 119.885 168.216C119.885 168.178 119.885 168.139 119.885 168.101C119.885 168.063 119.885 168.024 119.885 167.986C119.885 167.947 119.885 167.909 119.885 167.87C119.885 167.832 119.885 167.793 119.885 167.755C119.885 167.716 119.885 167.677 119.885 167.639C119.885 167.6 119.885 167.561 119.885 167.522C119.885 167.483 119.885 167.444 119.885 167.405C119.885 167.366 119.885 167.327 119.885 167.288C119.885 167.249 119.885 167.21 119.885 167.171C119.885 167.132 119.885 167.093 119.885 167.054C119.885 167.014 119.885 166.975 119.885 166.936C119.885 166.896 119.885 166.857 119.885 166.817C119.885 166.778 119.885 166.738 119.885 166.699C119.885 166.659 119.885 166.62 119.885 166.58C119.885 166.54 119.885 166.501 119.885 166.461C119.885 166.421 119.885 166.381 119.885 166.341C119.885 166.301 119.885 166.262 119.885 166.222C119.885 166.182 119.885 166.142 119.885 166.101C119.885 166.061 119.885 166.021 119.885 165.981C119.885 165.941 119.885 165.901 119.885 165.86C119.885 165.82 119.885 165.78 119.885 165.739C119.885 165.699 119.885 165.659 119.885 165.618C119.885 165.578 119.885 165.537 119.885 165.496C119.885 165.456 119.885 165.415 119.885 165.375C119.885 165.334 119.885 165.293 119.885 165.252C119.885 165.211 119.885 165.171 119.885 165.13C119.885 165.089 119.885 165.048 119.885 165.007C119.885 164.966 119.885 164.925 119.885 164.884C119.885 164.843 119.885 164.801 119.885 164.76C119.885 164.719 119.885 164.678 119.885 164.636C119.885 164.595 119.885 164.554 119.885 164.512C119.885 164.471 119.885 164.429 119.885 164.388C119.885 164.346 119.885 164.305 119.885 164.263C119.885 164.221 119.885 164.18 119.885 164.138C119.885 164.096 119.885 164.055 119.885 164.013C119.885 163.971 119.885 163.929 119.885 163.887C119.885 163.845 119.885 163.803 119.885 163.761C119.885 163.719 119.885 163.677 119.885 163.635C119.885 163.593 119.885 163.55 119.885 163.508C119.885 163.466 119.885 163.424 119.885 163.381C119.885 163.339 119.885 163.297 119.885 163.254C119.885 163.212 119.885 163.169 119.885 163.127C119.885 163.084 119.885 163.041 119.885 162.999C119.885 162.956 119.885 162.913 119.885 162.871C119.885 162.828 119.885 162.785 119.885 162.742C119.885 162.699 119.885 162.656 119.885 162.613C119.885 162.57 119.885 162.527 119.885 162.484C119.885 162.441 119.885 162.398 119.885 162.355C119.885 162.312 119.885 162.269 119.885 162.225C119.885 162.182 119.885 162.139 119.885 162.095C119.885 162.052 119.885 162.008 119.885 161.965C119.885 161.921 119.885 161.878 119.885 161.834C119.885 161.791 119.885 161.747 119.885 161.703C119.885 161.66 119.885 161.616 119.885 161.572C119.885 161.528 119.885 161.484 119.885 161.44C119.885 161.397 119.885 161.353 119.885 161.309C119.885 161.265 119.885 161.22 119.885 161.176C119.885 161.132 119.885 161.088 119.885 161.044C119.885 161 119.885 160.955 119.885 160.911C119.885 160.867 119.885 160.822 119.885 160.778C119.885 160.733 119.885 160.689 119.885 160.644C119.885 160.6 119.885 160.555 119.885 160.511C119.885 160.466 119.885 160.421 119.885 160.377C119.885 160.332 119.885 160.287 119.885 160.242C119.885 160.197 119.885 160.152 119.885 160.108C119.885 160.063 119.885 160.018 119.885 159.973C119.885 159.927 119.885 159.882 119.885 159.837C119.885 159.792 119.885 159.747 119.885 159.702C119.885 159.656 119.885 159.611 119.885 159.566C119.885 159.52 119.885 159.475 119.885 159.429C119.885 159.384 119.885 159.338 119.885 159.293C119.885 159.247 119.885 159.202 119.885 159.156C119.885 159.11 119.885 159.064 119.885 159.019C119.885 158.973 119.885 158.927 119.885 158.881C119.885 158.835 119.885 158.789 119.885 158.743C119.885 158.697 119.885 158.651 119.885 158.605C119.885 158.559 119.885 158.513 119.885 158.467C119.885 158.42 119.885 158.374 119.885 158.328C119.885 158.282 119.885 158.235 119.885 158.189C119.885 158.142 119.885 158.096 119.885 158.049C119.885 158.003 119.885 157.956 119.885 157.91C119.885 157.863 119.885 157.816 119.885 157.77C119.885 157.723 119.885 157.676 119.885 157.629C119.885 157.582 119.885 157.535 119.885 157.489C119.885 157.442 119.885 157.395 119.885 157.348C119.885 157.301 119.885 157.253 119.885 157.206C119.885 157.159 119.885 157.112 119.885 157.065C119.885 157.017 119.885 156.97 119.885 156.923C119.885 156.875 119.885 156.828 119.885 156.78C119.885 156.733 119.885 156.685 119.885 156.638C119.885 156.59 119.885 156.543 119.885 156.495C119.885 156.447 119.885 156.4 119.885 156.352C119.885 156.304 119.885 156.256 119.885 156.208C119.885 156.16 119.885 156.112 119.885 156.064C119.885 156.017 119.885 155.968 119.885 155.92C119.885 155.872 119.885 155.824 119.885 155.776C119.885 155.728 119.885 155.679 119.885 155.631C119.885 155.583 119.885 155.534 119.885 155.486C119.885 155.438 119.885 155.389 119.885 155.341C119.885 155.292 119.885 155.244 119.885 155.195C119.885 155.146 119.885 155.098 119.885 155.049C119.885 155 119.885 154.951 119.885 154.903C119.885 154.854 119.885 154.805 119.885 154.756C119.885 154.707 119.885 154.658 119.885 154.609C119.885 154.56 119.885 154.511 119.885 154.462C119.885 154.412 119.885 154.363 119.885 154.314C119.885 154.265 119.885 154.215 119.885 154.166C119.885 154.117 119.885 154.067 119.885 154.018C119.885 153.968 119.885 153.919 119.885 153.869C119.885 153.82 119.885 153.77 119.885 153.72C119.885 153.671 119.885 153.621 119.885 153.571C119.885 153.521 119.885 153.471 119.885 153.422C119.885 153.372 119.885 153.322 119.885 153.272C119.885 153.222 119.885 153.172 119.885 153.122C119.885 153.071 119.885 153.021 119.885 152.971H108.885ZM49.8591 112.454C49.811 112.115 49.7557 111.769 49.6901 111.446C49.648 111.24 49.5247 110.628 49.2466 109.987C49.1897 109.856 48.7115 108.656 47.4737 107.72C46.6983 107.134 45.3626 106.465 43.635 106.623C41.9602 106.776 40.8263 107.626 40.2381 108.211C39.2504 109.192 38.9122 110.291 38.8623 110.44C38.7393 110.807 38.6733 111.124 38.6395 111.303C38.4449 112.331 38.3975 114.033 38.3706 115.503C38.3083 118.904 38.3502 124.239 38.4307 129.772C38.5116 135.329 38.6329 141.165 38.7338 145.608C38.7843 147.831 38.8297 149.707 38.8625 151.027C38.8789 151.688 38.8922 152.209 38.9014 152.566C38.9059 152.745 38.9095 152.882 38.9119 152.975C38.9131 153.021 38.9141 153.056 38.9147 153.08C38.915 153.092 38.9152 153.101 38.9154 153.107C38.9155 153.11 38.9155 153.112 38.9156 153.114C38.9156 153.115 38.9156 153.115 38.9156 153.116C38.9156 153.116 38.9156 153.116 44.4137 152.971C49.9118 152.826 49.9118 152.826 49.9118 152.825C49.9118 152.825 49.9118 152.825 49.9117 152.824C49.9117 152.822 49.9117 152.82 49.9116 152.817C49.9114 152.812 49.9112 152.803 49.9109 152.791C49.9103 152.768 49.9094 152.734 49.9082 152.688C49.9058 152.597 49.9023 152.461 49.8977 152.284C49.8886 151.93 49.8755 151.411 49.8591 150.754C49.8265 149.44 49.7812 147.572 49.731 145.358C49.6304 140.93 49.5098 135.127 49.4295 129.612C49.3489 124.073 49.3102 118.904 49.3688 115.705C49.4023 113.875 49.4657 113.253 49.4475 113.349C49.4357 113.412 49.3927 113.635 49.2938 113.93C49.2681 114.007 48.955 115.055 47.9936 116.011C47.4185 116.583 46.298 117.425 44.6369 117.577C42.9229 117.734 41.6012 117.07 40.84 116.495C39.6307 115.58 39.182 114.426 39.1558 114.366C38.9391 113.866 38.8817 113.496 38.9105 113.637C38.9156 113.663 38.9358 113.771 38.9683 114L49.8591 112.454Z" fill="#353238"/>
<path d="M97.8406 79C97.8406 79 104.217 85 112.077 85C119.937 85 124.841 79 124.841 79" stroke="#353238" stroke-width="11" stroke-linecap="round" stroke-linejoin="round"/>
<path d="M106.341 73.0953C106.394 76.1324 108.899 78.5518 111.936 78.4992C114.973 78.4465 117.392 75.9418 117.34 72.9047L106.341 73.0953ZM100.135 30.6698L95.972 34.2639L100.135 30.6698ZM54.1816 10.833C51.1659 11.1969 49.0163 13.9367 49.3802 16.9523C49.7441 19.968 52.4839 22.1177 55.4995 21.7538L54.1816 10.833ZM111.841 73C117.34 72.9047 117.34 72.9036 117.34 72.9023C117.34 72.9018 117.34 72.9004 117.34 72.8993C117.34 72.8971 117.34 72.8944 117.34 72.8913C117.339 72.885 117.339 72.8769 117.339 72.8671C117.339 72.8475 117.338 72.8208 117.337 72.7872C117.336 72.72 117.333 72.6252 117.33 72.5043C117.323 72.2625 117.311 71.9159 117.292 71.4756C117.254 70.5956 117.187 69.339 117.071 67.7965C116.839 64.7184 116.408 60.4661 115.608 55.7746C114.064 46.7068 110.959 34.7902 104.298 27.0756L95.972 34.2639C100.508 39.5184 103.256 48.767 104.765 57.622C105.492 61.8919 105.888 65.7905 106.102 68.6229C106.208 70.0356 106.268 71.1742 106.302 71.9505C106.319 72.3384 106.329 72.6352 106.335 72.8299C106.337 72.9272 106.339 72.9989 106.34 73.0436C106.341 73.0659 106.341 73.0816 106.341 73.0902C106.341 73.0946 106.341 73.0972 106.341 73.098C106.341 73.0985 106.341 73.0985 106.341 73.098C106.341 73.0978 106.341 73.0971 106.341 73.097C106.341 73.0962 106.341 73.0953 111.841 73ZM104.298 27.0756C95.286 16.6364 82.4091 12.7286 72.452 11.2985C67.3993 10.5729 62.8868 10.4534 59.6344 10.5135C58.0033 10.5437 56.676 10.6194 55.7403 10.6894C55.2721 10.7244 54.9009 10.7581 54.6378 10.7841C54.5061 10.7971 54.4014 10.8082 54.325 10.8166C54.2867 10.8208 54.2556 10.8243 54.2316 10.8271C54.2196 10.8285 54.2095 10.8297 54.2011 10.8307C54.197 10.8312 54.1932 10.8316 54.19 10.832C54.1884 10.8322 54.1863 10.8324 54.1855 10.8325C54.1835 10.8328 54.1816 10.833 54.8406 16.2934C55.4995 21.7538 55.4979 21.754 55.4964 21.7541C55.496 21.7542 55.4946 21.7543 55.4939 21.7544C55.4924 21.7546 55.4914 21.7547 55.4909 21.7548C55.4898 21.7549 55.4904 21.7548 55.4928 21.7546C55.4976 21.754 55.5094 21.7527 55.528 21.7506C55.5652 21.7465 55.6296 21.7396 55.7199 21.7307C55.9005 21.7129 56.1843 21.6869 56.5607 21.6587C57.3143 21.6024 58.4347 21.5376 59.8379 21.5117C62.6543 21.4595 66.5565 21.5647 70.8882 22.1868C79.6999 23.4524 89.4703 26.7328 95.972 34.2639L104.298 27.0756Z" fill="#353238"/>
<path d="M25.7822 72.0085L20.3456 72.8408C20.7451 75.4508 22.9431 77.4086 25.5817 77.5049L25.7822 72.0085ZM30.7306 40.4946L35.066 43.879L30.7306 40.4946ZM60.0775 29.0104L65.3531 27.4554C64.6397 25.0354 62.3714 23.4111 59.8506 23.5151L60.0775 29.0104ZM59.0951 61.9958L54.6682 58.7319L59.0951 61.9958ZM25.7822 72.0085C31.2189 71.1762 31.2191 71.1774 31.2192 71.1784C31.2193 71.1787 31.2194 71.1796 31.2195 71.1801C31.2196 71.1811 31.2197 71.1818 31.2198 71.1821C31.2199 71.1828 31.2198 71.1823 31.2195 71.1805C31.219 71.1769 31.2177 71.1684 31.2158 71.1551C31.2119 71.1284 31.2053 71.0826 31.1965 71.0185C31.1788 70.8902 31.1521 70.689 31.1199 70.4227C31.0553 69.8895 30.9689 69.0981 30.8882 68.1088C30.726 66.122 30.5902 63.3808 30.6895 60.3569C30.8984 53.9944 32.1203 47.6524 35.066 43.879L26.3952 37.1101C21.1704 43.803 19.918 53.2179 19.6954 59.9959C19.579 63.5422 19.738 66.7171 19.9247 69.0038C20.0183 70.1513 20.1199 71.086 20.1996 71.7447C20.2395 72.0743 20.2741 72.3356 20.2996 72.5208C20.3123 72.6133 20.3229 72.687 20.3307 72.7406C20.3346 72.7674 20.3378 72.7893 20.3403 72.806C20.3416 72.8144 20.3426 72.8215 20.3435 72.8273C20.344 72.8302 20.3443 72.8328 20.3447 72.835C20.3449 72.8362 20.3451 72.8376 20.3452 72.8382C20.3454 72.8396 20.3456 72.8408 25.7822 72.0085ZM35.066 43.879C38.0098 40.1081 43.7666 37.5976 49.8206 36.1139C52.6969 35.4091 55.3565 35.003 57.2996 34.7745C58.2665 34.6608 59.0444 34.5925 59.5686 34.5531C59.8305 34.5334 60.0282 34.521 60.1538 34.5138C60.2165 34.5102 60.2611 34.5079 60.2866 34.5066C60.2993 34.506 60.3072 34.5057 60.3102 34.5055C60.3117 34.5055 60.312 34.5054 60.311 34.5055C60.3106 34.5055 60.3098 34.5055 60.3086 34.5056C60.3081 34.5056 60.307 34.5057 60.3067 34.5057C60.3056 34.5057 60.3044 34.5058 60.0775 29.0104C59.8506 23.5151 59.8492 23.5152 59.8477 23.5153C59.8471 23.5153 59.8456 23.5153 59.8444 23.5154C59.842 23.5155 59.8393 23.5156 59.8362 23.5157C59.8302 23.516 59.8228 23.5163 59.8141 23.5167C59.7968 23.5175 59.7744 23.5185 59.7471 23.5199C59.6923 23.5226 59.6177 23.5265 59.5241 23.5318C59.3371 23.5425 59.0743 23.5592 58.7441 23.584C58.0842 23.6336 57.152 23.7161 56.0151 23.8498C53.7503 24.1161 50.6269 24.5908 47.2023 25.4301C40.6544 27.0348 31.7378 30.2664 26.3952 37.1101L35.066 43.879ZM60.0775 29.0104C54.8019 30.5655 54.8016 30.5645 54.8013 30.5635C54.8012 30.5633 54.801 30.5624 54.8009 30.562C54.8006 30.5612 54.8005 30.5607 54.8004 30.5606C54.8004 30.5603 54.8007 30.5613 54.8014 30.5637C54.8028 30.5685 54.8057 30.5785 54.81 30.5938C54.8188 30.6242 54.8334 30.6754 54.8531 30.7461C54.8926 30.8875 54.9528 31.1071 55.0286 31.3964C55.1803 31.9756 55.3939 32.8307 55.6296 33.895C56.1032 36.0338 56.655 38.9665 56.9827 42.1726C57.3128 45.4016 57.399 48.7536 57.0181 51.7788C56.6314 54.8497 55.8136 57.1784 54.6682 58.7319L63.5219 65.2597C66.2004 61.6269 67.4174 57.2392 67.9319 53.1529C68.4522 49.0209 68.306 44.7749 67.9257 41.0541C67.543 37.3104 66.9064 33.9417 66.3693 31.5165C66.0997 30.2988 65.8522 29.3063 65.6693 28.6083C65.5778 28.259 65.5022 27.9826 65.4478 27.7878C65.4206 27.6904 65.3987 27.6132 65.3827 27.5575C65.3747 27.5296 65.3682 27.5071 65.3632 27.49C65.3607 27.4815 65.3586 27.4743 65.3569 27.4686C65.3561 27.4657 65.3553 27.4631 65.3547 27.4609C65.3544 27.4598 65.354 27.4585 65.3538 27.4579C65.3534 27.4566 65.3531 27.4554 60.0775 29.0104ZM54.6682 58.7319C53.4686 60.3589 51.3799 61.85 48.3829 63.0922C45.4273 64.3174 41.9799 65.1384 38.5719 65.6675C35.1891 66.1926 32.0107 66.4054 29.6675 66.4848C28.5015 66.5243 27.5562 66.5303 26.9128 66.5268C26.5915 66.5251 26.3464 66.521 26.1877 66.5175C26.1084 66.5158 26.0509 66.5142 26.0162 66.5132C25.9989 66.5127 25.9874 66.5123 25.9817 66.5122C25.9789 66.5121 25.9776 66.512 25.9777 66.512C25.9778 66.512 25.9783 66.512 25.9791 66.5121C25.9795 66.5121 25.9804 66.5121 25.9806 66.5121C25.9816 66.5122 25.9827 66.5122 25.7822 72.0085C25.5817 77.5049 25.583 77.5049 25.5844 77.505C25.585 77.505 25.5865 77.5051 25.5877 77.5051C25.59 77.5052 25.5928 77.5053 25.5959 77.5054C25.6022 77.5056 25.61 77.5059 25.6194 77.5062C25.6381 77.5068 25.6629 77.5076 25.6936 77.5085C25.755 77.5103 25.8402 77.5126 25.9478 77.5149C26.163 77.5196 26.4683 77.5246 26.8532 77.5267C27.6222 77.5309 28.7127 77.5235 30.04 77.4785C32.6833 77.3889 36.3216 77.1486 40.2593 76.5373C44.1718 75.9299 48.5488 74.9311 52.5951 73.2538C56.6001 71.5937 60.6908 69.0996 63.5219 65.2597L54.6682 58.7319Z" fill="#353238"/>
<path d="M57.7407 33.6009L47.5107 47.1784" stroke="#353238" stroke-width="11" stroke-linecap="round" stroke-linejoin="round"/>
</g>
<defs>
<clipPath id="clip0">
<rect width="203" height="203" fill="white"/>
</clipPath>
</defs>
</svg>
